<?xml version="1.0" standalone="no"?>
<!DOCTYPE svg PUBLIC "-//W3C//DTD SVG 20010904//EN"
 "http://www.w3.org/TR/2001/REC-SVG-20010904/DTD/svg10.dtd">
<svg version="1.0" xmlns="http://www.w3.org/2000/svg"
 width="678.000000pt" height="267.000000pt" viewBox="0 0 678.000000 267.000000"
 preserveAspectRatio="xMidYMid meet">

<g transform="translate(0.000000,267.000000) scale(0.100000,-0.100000)"
fill="#000000" stroke="none">
<path d="M0 1335 l0 -1335 3390 0 3390 0 0 1335 0 1335 -3390 0 -3390 0 0
-1335z m1643 986 c5 -5 -13 -104 -42 -228 -28 -120 -51 -224 -51 -231 0 -9 39
-12 143 -12 78 0 199 -3 270 -7 108 -5 127 -9 127 -22 0 -9 -16 -84 -35 -166
-20 -83 -43 -183 -52 -222 l-16 -73 -286 0 -286 0 -49 -217 c-27 -120 -53
-226 -58 -236 -9 -18 -24 -19 -291 -12 -155 4 -283 9 -285 10 -1 1 24 104 58
228 33 124 60 230 60 236 0 8 -83 11 -280 11 -260 0 -280 1 -280 18 0 9 23
103 51 207 27 105 55 207 60 229 l10 38 277 -7 277 -7 33 123 c66 253 89 337
97 349 6 10 63 12 274 6 146 -3 269 -10 274 -15z m523 -7 c108 -51 96 -276
-19 -352 -37 -25 -50 -27 -164 -31 -108 -3 -123 -1 -123 13 0 9 18 96 40 193
22 98 40 181 40 185 0 16 190 9 226 -8z m455 -22 c55 -61 32 -155 -46 -188
l-32 -13 33 -67 c45 -89 45 -104 -5 -104 -45 0 -50 5 -81 83 -24 61 -50 87
-86 87 -20 0 -24 -10 -40 -80 l-17 -80 -49 0 c-42 0 -49 2 -44 18 3 9 21 87
40 172 19 85 37 168 41 183 l8 29 124 -4 125 -3 29 -33z m381 13 c130 -96 59
-347 -108 -383 -127 -27 -214 40 -214 166 0 101 45 182 122 221 56 28 159 26
200 -4z m423 4 c33 -16 77 -75 73 -98 -2 -10 -16 -17 -37 -19 -27 -3 -39 2
-62 27 -23 26 -36 31 -71 31 -24 0 -54 -7 -66 -16 -59 -41 -85 -180 -41 -220
41 -37 159 -17 159 26 0 17 -7 20 -40 20 -45 0 -56 14 -46 55 6 24 9 25 96 25
l90 0 0 -27 c0 -16 -4 -44 -9 -63 -5 -19 -12 -48 -15 -63 -14 -63 -198 -97
-275 -52 -48 28 -73 82 -72 152 1 144 103 249 231 241 30 -2 68 -11 85 -19z
m408 -169 c33 -211 32 -224 -8 -228 -34 -4 -55 18 -55 60 l0 28 -77 0 -78 0
-23 -40 c-21 -37 -26 -40 -67 -40 -25 0 -45 2 -45 5 0 2 50 92 112 200 l112
196 51 -3 50 -3 28 -175z m401 166 c44 -18 66 -52 66 -99 0 -51 -25 -92 -70
-112 l-36 -16 33 -66 c46 -91 44 -105 -9 -101 -39 3 -44 6 -61 43 -45 104 -50
110 -89 113 -32 3 -38 0 -42 -20 -30 -136 -29 -133 -63 -136 -18 -2 -39 0 -46
5 -15 8 -16 3 54 311 l21 92 104 0 c67 0 117 -5 138 -14z m231 -33 c-3 -21
-22 -108 -41 -194 -19 -85 -34 -158 -34 -162 0 -4 -20 -7 -45 -7 -33 0 -45 4
-45 15 0 8 18 96 40 195 22 99 40 182 40 185 0 3 21 5 46 5 l46 0 -7 -37z
m289 15 c9 -40 56 -349 56 -364 0 -12 -10 -14 -42 -12 -34 2 -43 7 -46 23 -10
67 -7 65 -82 65 -64 0 -70 -2 -88 -27 -10 -16 -22 -36 -25 -45 -5 -14 -18 -18
-52 -18 -25 0 -45 4 -45 8 0 8 88 164 181 325 l40 67 49 0 c43 0 50 -3 54 -22z
m-2000 -466 c3 -20 40 -252 81 -515 41 -263 75 -481 75 -483 0 -2 -45 -4 -99
-4 -115 0 -103 -12 -122 128 -11 80 -16 93 -33 98 -12 2 -106 3 -210 2 l-188
-3 -36 -65 c-20 -36 -48 -85 -62 -110 l-26 -45 -107 -3 c-82 -2 -107 0 -107
10 0 7 47 94 103 193 57 99 186 324 287 500 100 176 188 325 195 330 7 6 60 9
128 7 l115 -3 6 -37z m722 24 c3 -8 -4 -54 -16 -102 -12 -49 -37 -161 -55
-249 -19 -88 -51 -231 -70 -318 -19 -87 -35 -165 -35 -173 0 -12 41 -14 260
-14 l260 0 0 -22 c0 -20 -6 -53 -25 -135 l-5 -23 -363 0 c-199 0 -368 4 -375
9 -10 6 -9 26 8 102 25 111 90 407 155 709 26 118 49 218 52 223 2 4 49 7 104
7 76 0 101 -3 105 -14z m1641 -1 c131 -39 215 -139 239 -286 l6 -36 -93 -10
c-52 -5 -99 -8 -104 -6 -6 2 -18 26 -28 53 -31 86 -122 130 -229 110 -101 -19
-155 -64 -214 -178 -49 -96 -67 -178 -62 -282 10 -188 119 -274 285 -225 60
18 120 77 152 150 l21 48 43 -7 c143 -22 167 -29 167 -43 0 -8 -17 -47 -37
-87 -66 -124 -181 -217 -304 -245 -24 -6 -89 -11 -144 -11 -167 0 -263 46
-332 162 -107 177 -91 485 34 670 75 111 157 176 273 215 80 28 247 32 327 8z
m-764 -2 c4 -7 -43 -230 -118 -568 -8 -38 -34 -158 -58 -265 l-42 -195 -108
-3 c-97 -2 -107 -1 -107 15 0 10 14 79 30 153 33 146 51 227 129 595 28 132
54 248 57 258 5 15 19 17 109 17 57 0 106 -3 108 -7z m2022 -15 c2 -7 -4 -47
-13 -88 l-18 -75 -281 -3 -281 -2 -21 -89 c-11 -50 -21 -101 -21 -115 l0 -26
259 0 c168 0 262 -4 266 -10 4 -6 -1 -46 -11 -90 l-17 -80 -272 0 -272 0 -26
-117 c-15 -65 -27 -125 -27 -134 0 -25 30 -27 319 -29 146 0 267 -3 270 -5 6
-7 -18 -134 -30 -158 -11 -18 -22 -19 -407 -12 -219 4 -400 9 -403 11 -6 4 3
52 54 284 14 63 55 254 92 424 36 170 68 313 71 318 3 4 176 8 385 8 295 0
381 -3 384 -12z m-4360 -1239 c18 -53 15 -62 -22 -73 -19 -6 -24 -1 -39 49
-16 49 -16 58 -4 66 32 20 48 10 65 -42z m374 25 c67 -27 92 -87 62 -147 -19
-36 -18 -37 1 -62 22 -28 26 -90 9 -123 -14 -27 -67 -58 -113 -66 -48 -9 -110
8 -145 39 l-28 24 31 32 c31 30 32 31 57 14 15 -9 40 -15 59 -13 29 3 33 6 33
33 0 27 -4 31 -43 39 -40 9 -43 11 -40 40 2 22 9 32 23 34 57 8 65 13 65 37 0
39 -36 52 -78 29 l-34 -18 -24 27 c-33 39 -30 52 19 76 50 25 93 27 146 5z
m340 -11 c14 -11 34 -36 45 -57 26 -53 10 -103 -46 -148 -22 -18 -57 -48 -77
-65 l-36 -32 43 -1 c35 0 42 3 42 19 0 20 27 31 70 28 23 -2 25 -6 28 -64 l3
-63 -156 0 -155 0 0 43 c0 55 37 107 117 163 41 29 59 48 61 66 5 38 -29 46
-75 18 l-36 -21 -31 30 -31 31 26 26 c54 54 153 66 208 27z m348 -7 c48 -31
68 -85 68 -181 0 -95 -21 -147 -75 -183 -45 -31 -130 -28 -177 6 -84 60 -98
244 -24 332 49 59 141 71 208 26z m321 -3 c15 -11 33 -38 41 -60 13 -37 13
-43 -7 -76 -17 -30 -18 -38 -7 -47 25 -21 38 -77 26 -113 -31 -92 -199 -117
-276 -41 -15 15 -14 19 11 45 31 33 46 36 64 14 13 -15 47 -20 74 -9 10 4 16
18 16 35 0 29 -5 32 -65 41 -15 2 -20 11 -20 33 0 26 4 31 34 35 41 6 61 32
45 58 -15 24 -38 26 -75 8 -31 -15 -32 -15 -55 12 -33 38 -30 50 19 73 53 25
136 21 175 -8z m516 13 c18 -8 41 -24 50 -37 20 -29 21 -88 1 -116 -14 -20
-14 -25 5 -55 41 -67 17 -147 -53 -179 -23 -10 -53 -19 -67 -19 -46 0 -103 22
-132 50 -37 38 -39 101 -4 153 21 30 22 38 10 48 -19 16 -18 89 2 118 33 47
122 65 188 37z m298 4 c55 -16 88 -61 88 -119 0 -59 -18 -84 -100 -142 -33
-23 -60 -46 -60 -50 0 -5 18 -9 40 -9 33 0 40 3 40 20 0 17 7 20 50 20 l50 0
0 -60 0 -60 -155 0 -155 0 0 46 c0 57 29 97 116 161 66 49 79 74 45 93 -22 11
-47 5 -74 -18 -16 -14 -20 -13 -47 13 -17 16 -30 35 -30 42 0 15 38 41 88 59
46 16 57 17 104 4z m-2280 -27 c6 -16 12 -57 14 -93 2 -69 24 -133 54 -159 19
-17 40 -71 40 -102 0 -27 -33 -24 -70 7 -53 45 -110 185 -110 272 0 42 27 102
46 102 8 0 20 -12 26 -27z m2649 4 c117 -77 99 -320 -28 -373 -55 -24 -154
-12 -187 22 -14 13 -13 19 1 49 19 40 19 40 66 20 48 -20 54 -19 82 10 31 30
34 50 6 35 -52 -27 -133 -2 -165 50 -35 61 -6 163 56 193 49 25 128 22 169 -6z
m313 9 c18 -8 46 -31 62 -52 25 -32 29 -48 33 -115 3 -66 -1 -86 -22 -133 -14
-30 -37 -62 -52 -72 -47 -31 -162 -28 -214 5 -15 10 -10 45 12 75 13 17 15 17
45 2 17 -9 39 -16 50 -16 18 0 62 34 62 49 0 4 -27 5 -59 3 -56 -4 -61 -3 -97
31 -36 33 -39 39 -39 90 0 40 6 63 21 84 42 57 127 79 198 49z m-1240 -238 c3
-17 2 -36 -2 -40 -5 -5 -44 -8 -88 -6 -74 3 -79 4 -82 26 -7 47 2 52 86 52
l80 0 6 -32z m-1555 -27 c6 -10 13 -37 17 -59 5 -35 4 -41 -16 -47 -28 -9 -38
1 -55 58 -13 42 -12 48 3 56 26 15 40 13 51 -8z"/>
<path d="M941 1718 c-61 -256 -74 -318 -70 -322 2 -2 125 -6 273 -8 l268 -3
59 220 c32 121 57 226 54 233 -3 9 -68 12 -279 12 l-274 0 -31 -132z"/>
<path d="M2023 2248 c-13 -17 -58 -236 -50 -244 3 -3 28 -3 56 1 78 11 121 68
121 163 0 48 -15 70 -58 82 -48 13 -58 13 -69 -2z"/>
<path d="M2416 2242 c-2 -4 -7 -24 -11 -45 l-7 -37 50 0 c83 0 133 37 102 75
-13 16 -125 22 -134 7z"/>
<path d="M2841 2236 c-61 -34 -91 -158 -50 -210 27 -34 94 -37 128 -5 32 30
61 97 61 142 0 71 -73 110 -139 73z"/>
<path d="M3693 2146 c-18 -30 -33 -57 -33 -60 0 -3 20 -6 45 -6 43 0 45 1 45
29 0 38 -11 91 -19 91 -3 0 -21 -25 -38 -54z"/>
<path d="M4067 2233 c-2 -5 -7 -25 -11 -45 l-7 -38 50 0 c63 0 97 13 106 40
11 35 -11 50 -76 50 -32 0 -60 -3 -62 -7z"/>
<path d="M4647 2148 c-20 -31 -37 -62 -37 -68 0 -15 80 -13 86 3 2 7 1 37 -4
67 l-8 55 -37 -57z"/>
<path d="M2567 1598 c-81 -127 -217 -354 -217 -360 0 -4 67 -8 148 -8 l149 0
-5 33 c-15 117 -52 350 -56 354 -2 3 -11 -6 -19 -19z"/>
<path d="M2961 499 c-37 -61 -18 -189 28 -189 44 0 54 162 12 203 -19 20 -20
20 -40 -14z"/>
<path d="M3822 531 c-23 -14 -10 -46 21 -49 31 -4 46 20 27 43 -14 17 -29 19
-48 6z"/>
<path d="M3806 361 c-33 -36 4 -82 53 -66 26 8 37 43 20 60 -26 24 -55 26 -73
6z"/>
<path d="M4468 509 c-35 -20 -19 -79 22 -79 41 0 58 25 39 58 -17 30 -36 37
-61 21z"/>
<path d="M4802 504 c-12 -8 -22 -24 -22 -34 0 -28 28 -52 54 -44 38 12 48 50
20 78 -19 20 -24 20 -52 0z"/>
</g>
</svg>
